# xmcd
#
# Track frame offsets: 
#        150
#        12866
#        31259
#        45466
#        64414
#        73650
#        89651
#        106406
#        121143
#        139900
#        154897
#        168180
#        179931
#        191187
#        209716
#
# Disc length: 3017 seconds
#
# Revision: 0
# Processed by: cddbd v1.5.2PL0 Copyright (c) Steve Scherf et al.
# Submitted via: ExactAudioCopy v0.95b4
#
DISCID=e30bc70f
DTITLE=Billy Joe Shaver - The Complete Columbia Recordings D1 (1981-19
DTITLE=82)
DYEAR=2013
DGENRE=Country
TTITLE0=Fit To Kill And Going Out In Style
TTITLE1=Blue Texas Waltz
TTITLE2=Saturday Night
TTITLE3=Ragged Old Truck
TTITLE4=I'm Just An Old Chunk Of Coal
TTITLE5=When The Word Was Thunderbird
TTITLE6=(We Are) The Cowboys
TTITLE7=Mexico
TTITLE8=It Ain't Nothing New Babe
TTITLE9=The Road
TTITLE10=Amtrak
TTITLE11=Bottom Dollar
TTITLE12=Old Five And Dimers Like Me
TTITLE13=How Many Hearts Must You Break
TTITLE14=Oklahoma Wind
EXTD=
EXTT0=
EXTT1=
EXTT2=
EXTT3=
EXTT4=
EXTT5=
EXTT6=
EXTT7=
EXTT8=
EXTT9=
EXTT10=
EXTT11=
EXTT12=
EXTT13=
EXTT14=
PLAYORDER=
